# File created by Blade
# Date/Time:  Tue Jan 27 19:23:26 2015
#---------------------------------------------------------
:version 1.10
:name HOM
:units
  mass 1.0
  length 1.000000
  angle deg
:documentation
     Acclaim Skeleton File
:root
   axis xyz
   order TX TY TZ RX RY RZ
   position 0.000000 0.000000 0.000000
   orientation 0 0 0
:bonedata
   begin
      id 1
      name Spine_dum
      direction 0.000000 1.000000 0.000000
      length 6.116652
      axis 0.0 0.0 0.0 xyz
   end
   begin
      id 2
      name LeftUpLeg_dum
      direction 1.000000 0.000000 0.000000
      length 4.711765
      axis 0.0 0.0 0.0 xyz
   end
   begin
      id 3
      name RightUpLeg_dum
      direction -1.000000 0.000000 0.000000
      length 4.711765
      axis 0.0 0.0 0.0 xyz
   end
   begin
      id 4
      name Spine
      direction 0.000000 1.000000 0.000000
      length 0.000000
      axis 0.0 0.0 0.0 xyz
      dof rx ry rz
   end
   begin
      id 5
      name Spine_dum1
      direction 0.000000 1.000000 0.000000
      length 15.225563
      axis 0.0 0.0 0.0 xyz
   end
   begin
      id 6
      name Spine_dum2
      direction 0.000000 1.000000 0.000000
      length 8.977654
      axis 0.0 0.0 0.0 xyz
   end
   begin
      id 7
      name Spine_dum3
      direction 0.000000 1.000000 0.000000
      length 8.977654
      axis 0.0 0.0 0.0 xyz
   end
   begin
      id 8
      name Head
      direction 0.000000 1.000000 0.000000
      length 4.527550
      axis 0.0 0.0 0.0 xyz
      dof rx ry rz
   end
   begin
      id 9
      name LeftShoulder
      direction 1.000000 0.000000 0.000000
      length 7.110130
      axis 0.0 0.0 -90.0 xyz
      dof rx ry rz
   end
   begin
      id 10
      name LeftArm
      direction 1.000000 0.000000 0.000000
      length 10.398341
      axis 0.0 0.0 -90.0 xyz
      dof rx ry rz
   end
   begin
      id 11
      name LeftForeArm
      direction 1.000000 0.000000 0.000000
      length 8.888997
      axis 0.0 0.0 -90.0 xyz
      dof ry rz rx
   end
   begin
      id 12
      name LeftHand
      direction 0.000000 0.000000 0.000000
      length 0.000000
      axis 0.0 0.0 -90.0 xyz
      dof rx ry rz
   end
   begin
      id 13
      name LeftHand_dum1
      direction 0.000000 0.000000 0.000000
      length 0.000000
      axis 0.0 0.0 -90.0 xyz
   end
   begin
      id 14
      name LeftHand_dum2
      direction 1.000000 0.000000 0.000000
      length 3.937000
      axis 0.0 0.0 -90.0 xyz
   end
   begin
      id 15
      name LeftHandThumb1
      direction 0.000000 0.000000 1.000000
      length 3.937000
      axis 0.0 0.0 -90.0 xyz
      dof rx rz ry
   end
   begin
      id 16
      name RightShoulder
      direction -1.000000 0.000000 0.000000
      length 7.110130
      axis 0.0 0.0 90.0 xyz
      dof rx ry rz
   end
   begin
      id 17
      name RightArm
      direction -1.000000 0.000000 0.000000
      length 10.398341
      axis 0.0 0.0 90.0 xyz
      dof rx ry rz
   end
   begin
      id 18
      name RightForeArm
      direction -1.000000 0.000000 0.000000
      length 8.888997
      axis 0.0 0.0 90.0 xyz
      dof ry rz rx
   end
   begin
      id 19
      name RightHand
      direction 0.000000 0.000000 0.000000
      length 0.000000
      axis 0.0 0.0 90.0 xyz
      dof rx ry rz
   end
   begin
      id 20
      name RightHand_dum1
      direction 0.000000 0.000000 0.000000
      length 0.000000
      axis 0.0 0.0 90.0 xyz
   end
   begin
      id 21
      name RightHand_dum2
      direction -1.000000 0.000000 0.000000
      length 3.937000
      axis 0.0 0.0 90.0 xyz
   end
   begin
      id 22
      name RightHandThumb1
      direction 0.000000 0.000000 1.000000
      length 3.937000
      axis 0.0 0.0 90.0 xyz
      dof rx rz ry
   end
   begin
      id 23
      name LeftUpLeg
      direction 0.000000 -1.000000 0.000000
      length 15.510451
      axis 0.0 0.0 0.0 xyz
      dof rx ry rz
   end
   begin
      id 24
      name LeftLeg
      direction 0.000000 -1.000000 0.000000
      length 14.858061
      axis 0.0 0.0 0.0 xyz
      dof rx ry rz
   end
   begin
      id 25
      name LeftFoot
      direction 0.000000 -0.258819 0.965926
      length 5.128852
      axis 15.0 0.0 0.0 xyz
      dof rx ry rz
   end
   begin
      id 26
      name LeftToeBase
      direction 0.000000 0.000000 1.000000
      length 2.952750
      axis 0.0 0.0 0.0 xyz
      dof rx ry rz
   end
   begin
      id 27
      name RightUpLeg
      direction 0.000000 -1.000000 0.000000
      length 15.510451
      axis 0.0 0.0 0.0 xyz
      dof rx ry rz
   end
   begin
      id 28
      name RightLeg
      direction 0.000000 -1.000000 0.000000
      length 14.858061
      axis 0.0 0.0 0.0 xyz
      dof rx ry rz
   end
   begin
      id 29
      name RightFoot
      direction 0.000000 -0.258819 0.965926
      length 5.128852
      axis 15.0 0.0 0.0 xyz
      dof rx ry rz
   end
   begin
      id 30
      name RightToeBase
      direction 0.000000 0.000000 1.000000
      length 2.952750
      axis 0.0 0.0 0.0 xyz
      dof rx ry rz
   end
:hierarchy
   begin
      root Spine_dum LeftUpLeg_dum RightUpLeg_dum
      Spine_dum Spine
      LeftUpLeg_dum LeftUpLeg
      RightUpLeg_dum RightUpLeg
      Spine Spine_dum1 Spine_dum2 Spine_dum3
      Spine_dum1 Head
      Spine_dum2 LeftShoulder
      Spine_dum3 RightShoulder
      LeftShoulder LeftArm
      LeftArm LeftForeArm
      LeftForeArm LeftHand
      LeftHand LeftHand_dum1 LeftHand_dum2
      LeftHand_dum1 LeftHandThumb1
      RightShoulder RightArm
      RightArm RightForeArm
      RightForeArm RightHand
      RightHand RightHand_dum1 RightHand_dum2
      RightHand_dum1 RightHandThumb1
      LeftUpLeg LeftLeg
      LeftLeg LeftFoot
      LeftFoot LeftToeBase
      RightUpLeg RightLeg
      RightLeg RightFoot
      RightFoot RightToeBase
   end

# File created by Blade
# Date/Time:  Tue Jan 27 19:23:16 2015
# Frame Rate: 120.000 fps
#------------------------------------------------------
:FULLY-SPECIFIED
:DEGREES
274
root 3.954387 32.354173 -0.518376 -4.005018 5.011668 1.186810
Spine 2.830208 14.475856 3.621696
Head 2.038939 -16.556649 -2.777797
LeftShoulder -9.266279 -0.941649 30.541723
LeftArm 5.516825 30.722293 -72.772104
LeftForeArm 18.470474 -0.000000 58.191831
LeftHand 10.196012 -0.000000 -8.967747
LeftHandThumb1 -26.253704 0.000000 33.147579
RightShoulder -6.643178 12.364285 -44.589875
RightArm 62.461405 18.259930 103.598711
RightForeArm 5.199504 -0.000000 53.906790
RightHand 19.416409 -0.000000 -5.505743
RightHandThumb1 -24.326973 -0.000000 -32.862282
LeftUpLeg 8.294776 -0.747881 -1.046518
LeftLeg 2.264027 -0.000000 -0.000000
LeftFoot -15.864894 11.900905 -22.765187
LeftToeBase 16.896102 -0.000000 -0.000000
RightUpLeg 8.641339 -11.658763 0.216260
RightLeg 0.242505 -0.000000 -0.000000
RightFoot -12.478479 -15.123726 13.467301
RightToeBase 10.655855 -0.000000 -0.000000
275
root 3.952634 32.355602 -0.521219 -3.940813 5.037737 1.206284
Spine 2.827729 14.687165 3.679241
Head 1.796398 -16.822866 -2.813106
LeftShoulder -9.145708 -0.858887 30.379585
LeftArm 5.387549 32.119921 -73.819934
LeftForeArm 18.688948 -0.000000 57.874891
LeftHand 10.248977 0.000000 -8.776528
LeftHandThumb1 -26.253704 0.000000 33.147579
RightShoulder -6.550359 12.952441 -44.853364
RightArm 62.811291 17.942605 104.736788
RightForeArm 5.685473 -0.000000 54.966815
RightHand 19.598515 -0.000000 -5.775524
RightHandThumb1 -24.326973 -0.000000 -32.862282
LeftUpLeg 8.227875 -0.790771 -1.066031
LeftLeg 2.252150 -0.000000 -0.000000
LeftFoot -15.829161 11.933093 -22.745301
LeftToeBase 16.920455 -0.000000 -0.000000
RightUpLeg 8.616587 -11.668342 0.209172
RightLeg 0.162366 -0.000000 -0.000000
RightFoot -12.446890 -15.132351 13.479795
RightToeBase 10.655125 -0.000000 -0.000000
276
root 3.950687 32.357485 -0.523458 -3.886491 5.060828 1.223054
Spine 2.834658 14.899603 3.732916
Head 1.576853 -17.081182 -2.826664
LeftShoulder -9.002675 -0.972670 30.222497
LeftArm 5.011886 33.556510 -74.967489
LeftForeArm 19.094700 -0.000000 57.546808
LeftHand 10.178431 0.000000 -8.401059
LeftHandThumb1 -26.253704 0.000000 33.147579
RightShoulder -6.436262 13.518941 -45.138372
RightArm 63.121961 17.618327 105.876439
RightForeArm 6.353751 -0.000000 56.070706
RightHand 19.802762 -0.000000 -6.097328
RightHandThumb1 -24.326973 -0.000000 -32.862282
LeftUpLeg 8.174028 -0.850052 -1.084069
LeftLeg 2.239550 -0.000000 -0.000000
LeftFoot -15.799372 11.960061 -22.767974
LeftToeBase 16.818042 -0.000000 -0.000000
RightUpLeg 8.596746 -11.775762 0.192914
RightLeg 0.094538 -0.000000 -0.000000
RightFoot -12.396410 -15.063157 13.469456
RightToeBase 10.658913 -0.000000 -0.000000
277
root 3.945489 32.359923 -0.523311 -3.832562 5.089222 1.218979
Spine 2.834194 15.127964 3.797046
Head 1.373255 -17.379241 -2.819538
LeftShoulder -8.908397 -0.936192 30.056827
LeftArm 4.909422 34.905496 -76.022647
LeftForeArm 19.429221 -0.000000 57.000035
LeftHand 10.452997 -0.000000 -8.272211
LeftHandThumb1 -26.253704 0.000000 33.147579
RightShoulder -6.309978 14.123320 -45.427669
RightArm 63.381546 17.356454 107.099839
RightForeArm 7.244510 -0.000000 57.180747
RightHand 20.239347 -0.000000 -5.838697
RightHandThumb1 -24.326973 -0.000000 -32.862282
LeftUpLeg 8.119326 -0.925003 -1.079774
LeftLeg 2.229614 -0.000000 -0.000000
LeftFoot -15.793312 12.016882 -22.767414
LeftToeBase 16.911723 -0.000000 -0.000000
RightUpLeg 8.582857 -11.954913 0.193037
RightLeg 0.019190 -0.000000 -0.000000
RightFoot -12.287380 -14.955724 13.371801
RightToeBase 10.596301 -0.000000 -0.000000
278
root 3.940020 32.362521 -0.522672 -3.773054 5.112994 1.223255
Spine 2.821261 15.399217 3.836628
Head 1.177990 -17.721411 -2.765429
LeftShoulder -8.833708 -0.929127 29.893104
LeftArm 4.860961 36.273142 -77.071252
LeftForeArm 19.637700 0.000000 56.308116
LeftHand 10.652978 0.000000 -8.213338
LeftHandThumb1 -26.253704 0.000000 33.147579
RightShoulder -6.154482 14.704036 -45.686793
RightArm 63.608402 17.118233 108.200099
RightForeArm 7.908398 -0.000000 58.360340
RightHand 20.474837 -0.000000 -5.960125
RightHandThumb1 -24.326973 -0.000000 -32.862282
LeftUpLeg 8.060573 -1.011309 -1.081697
LeftLeg 2.221904 -0.000000 -0.000000
LeftFoot -15.777595 12.061261 -22.803877
LeftToeBase 16.904444 -0.000000 -0.000000
RightUpLeg 8.561677 -12.092718 0.198153
RightLeg -0.052266 -0.000000 0.000000
RightFoot -12.221174 -14.896309 13.335328
RightToeBase 10.668577 -0.000000 -0.000000
279
root 3.933032 32.364919 -0.520590 -3.707946 5.123652 1.228922
Spine 2.793162 15.714748 3.859393
Head 1.023541 -18.088054 -2.736113
LeftShoulder -8.779947 -0.936704 29.727066
LeftArm 4.813992 37.520256 -78.152684
LeftForeArm 20.086437 -0.000000 55.516827
LeftHand 10.707472 0.000000 -8.197167
LeftHandThumb1 -26.253704 0.000000 33.147579
RightShoulder -5.997105 15.125324 -45.925813
RightArm 63.935947 16.849934 109.310177
RightForeArm 8.292598 -0.000000 59.589559
RightHand 20.378465 -0.000000 -6.166666
RightHandThumb1 -24.326973 -0.000000 -32.862282
LeftUpLeg 8.000023 -1.089869 -1.082402
LeftLeg 2.217786 -0.000000 -0.000000
LeftFoot -15.776877 12.112607 -22.838773
LeftToeBase 16.954913 -0.000000 -0.000000
RightUpLeg 8.538088 -12.203422 0.204550
RightLeg -0.128037 -0.000000 0.000000
RightFoot -12.152690 -14.833202 13.293603
RightToeBase 10.636825 -0.000000 -0.000000
280
root 3.924061 32.367392 -0.519824 -3.630748 5.149352 1.232974
Spine 2.751173 16.062477 3.868891
Head 0.868611 -18.478347 -2.678421
LeftShoulder -8.713515 -1.028495 29.518448
LeftArm 4.727335 38.706272 -79.219185
LeftForeArm 20.408740 -0.000000 54.652415
LeftHand 10.824476 -0.000000 -8.416690
LeftHandThumb1 -26.253704 0.000000 33.147579
RightShoulder -5.819133 15.577159 -46.118277
RightArm 64.241830 16.627549 110.396224
RightForeArm 8.635006 -0.000000 60.819499
RightHand 20.498127 -0.000000 -6.156272
RightHandThumb1 -24.326973 -0.000000 -32.862282
LeftUpLeg 7.916776 -1.181556 -1.079681
LeftLeg 2.218827 -0.000000 -0.000000
LeftFoot -15.769296 12.171560 -22.863065
LeftToeBase 16.977414 -0.000000 -0.000000
RightUpLeg 8.490885 -12.320106 0.218295
RightLeg -0.185369 -0.000000 0.000000
RightFoot -12.095495 -14.769585 13.269329
RightToeBase 10.739121 -0.000000 -0.000000
281
root 3.917571 32.368836 -0.521512 -3.527103 5.190880 1.248065
Spine 2.680023 16.413421 3.858715
Head 0.727126 -18.858869 -2.619159
LeftShoulder -8.666636 -1.156261 29.263066
LeftArm 4.591653 39.796531 -80.289499
LeftForeArm 20.558181 -0.000000 53.730828
LeftHand 11.159539 0.000000 -9.327893
LeftHandThumb1 -26.253704 0.000000 33.147579
RightShoulder -5.624124 16.059966 -46.312272
RightArm 64.465630 16.443632 111.415980
RightForeArm 8.968780 -0.000000 62.139256
RightHand 20.501719 0.000000 -5.949002
RightHandThumb1 -24.326973 -0.000000 -32.862282
LeftUpLeg 7.787580 -1.293312 -1.093483
LeftLeg 2.254937 -0.000000 -0.000000
LeftFoot -15.778131 12.225975 -22.905880
LeftToeBase 16.980228 -0.000000 -0.000000
RightUpLeg 8.408385 -12.396711 0.229710
RightLeg -0.223830 -0.000000 0.000000
RightFoot -12.061056 -14.751812 13.223501
RightToeBase 10.685903 -0.000000 -0.000000
282
root 3.909470 32.370128 -0.519142 -3.438659 5.223405 1.242425
Spine 2.620312 16.835335 3.876825
Head 0.594315 -19.324948 -2.585602
LeftShoulder -8.567189 -1.359201 28.996276
LeftArm 4.342154 40.757130 -81.453559
LeftForeArm 21.027052 -0.000000 52.727658
LeftHand 11.253339 -0.000000 -9.284146
LeftHandThumb1 -26.253704 0.000000 33.147579
RightShoulder -5.481210 16.631591 -46.539460
RightArm 64.552695 16.276131 112.364967
RightForeArm 9.401359 -0.000000 63.404246
RightHand 20.730060 -0.000000 -5.846121
RightHandThumb1 -24.326973 -0.000000 -32.862282
LeftUpLeg 7.690598 -1.335608 -1.073421
LeftLeg 2.267155 -0.000000 -0.000000
LeftFoot -15.774225 12.226462 -22.908726
LeftToeBase 16.974243 -0.000000 -0.000000
RightUpLeg 8.341824 -12.495453 0.256102
RightLeg -0.257500 -0.000000 0.000000
RightFoot -12.013193 -14.690724 13.212681
RightToeBase 10.636883 -0.000000 -0.000000
283
root 3.900445 32.370249 -0.513125 -3.389558 5.282363 1.238168
Spine 2.591348 17.227733 3.889682
Head 0.480692 -19.786296 -2.524089
LeftShoulder -8.450315 -1.639714 28.752827
LeftArm 3.929659 41.498003 -82.742070
LeftForeArm 21.057026 -0.000000 51.618680
LeftHand 11.577359 0.000000 -9.947501
LeftHandThumb1 -26.253704 0.000000 33.147579
RightShoulder -5.268461 17.243678 -46.756234
RightArm 64.614029 16.145609 113.319445
RightForeArm 10.180995 -0.000000 64.678126
RightHand 20.901450 -0.000000 -5.785161
RightHandThumb1 -24.326973 -0.000000 -32.862282
LeftUpLeg 7.634876 -1.367166 -1.048451
LeftLeg 2.283211 -0.000000 -0.000000
LeftFoot -15.769227 12.181506 -22.924245
LeftToeBase 16.979898 -0.000000 -0.000000
RightUpLeg 8.324321 -12.609994 0.270741
RightLeg -0.283051 -0.000000 0.000000
RightFoot -12.011228 -14.625846 13.214140
RightToeBase 10.789204 -0.000000 -0.000000
284
root 3.892995 32.370109 -0.506922 -3.344011 5.346215 1.239648
Spine 2.571244 17.681152 3.913419
Head 0.386725 -20.317127 -2.520472
LeftShoulder -8.265272 -2.116052 28.501314
LeftArm 3.290414 42.263385 -84.195700
LeftForeArm 21.238911 -0.000000 50.363494
LeftHand 11.826086 -0.000000 -9.708737
LeftHandThumb1 -26.253704 0.000000 33.147579
RightShoulder -5.121792 17.874684 -46.933414
RightArm 64.669362 15.916807 114.142267
RightForeArm 11.217974 -0.000000 65.826005
RightHand 21.216680 -0.000000 -6.162925
RightHandThumb1 -24.326973 -0.000000 -32.862282
LeftUpLeg 7.590003 -1.442930 -1.042317
LeftLeg 2.283412 -0.000000 -0.000000
LeftFoot -15.767464 12.209285 -22.913940
LeftToeBase 16.978131 -0.000000 -0.000000
RightUpLeg 8.310704 -12.739063 0.273812
RightLeg -0.306850 -0.000000 0.000000
RightFoot -11.988642 -14.570041 13.176647
RightToeBase 10.721590 -0.000000 -0.000000
285
root 3.883273 32.370692 -0.503652 -3.266592 5.429111 1.223421
Spine 2.504418 18.131604 3.929536
Head 0.325446 -20.878821 -2.506400
LeftShoulder -8.092034 -2.413541 28.228617
LeftArm 2.882600 42.855871 -85.519929
LeftForeArm 21.112125 0.000000 49.006392
LeftHand 11.954193 -0.000000 -9.708320
LeftHandThumb1 -26.253704 0.000000 33.147579
RightShoulder -4.949710 18.520224 -47.084489
RightArm 64.657284 15.710270 114.826150
RightForeArm 12.311412 -0.000000 66.980757
RightHand 21.493638 -0.000000 -6.469398
RightHandThumb1 -24.326973 -0.000000 -32.862282
LeftUpLeg 7.487322 -1.501443 -1.003949
LeftLeg 2.316913 -0.000000 -0.000000
LeftFoot -15.766524 12.157441 -22.926688
LeftToeBase 16.990979 -0.000000 -0.000000
RightUpLeg 8.262149 -12.803041 0.317953
RightLeg -0.339873 -0.000000 0.000000
RightFoot -11.975595 -14.579693 13.232738
RightToeBase 10.710410 -0.000000 -0.000000
